#!OML:ASF F:\VICON\USERDATA\INSTALL\rory3\rory3.ASF
:FULLY-SPECIFIED
:DEGREES
4064
root -1.88629 17.6373 0.641648 6.45355 1.57088 0.967117
lowerback 1.39707 -0.745039 -3.23562
upperback 0.716722 -1.02981 1.98365
thorax 0.0463542 -0.52882 3.86953
lowerneck -29.7122 -1.87541 -9.50294
upperneck 22.1039 0.464732 3.92819
head 12.1573 -0.0766565 3.13956
rclavicle 5.06901e-015 3.18055e-015
rhumerus -20.9394 -33.3239 -9.29864
rradius 28.1805
rwrist 30.0521
rhand -26.9398 -7.40297
rfingers 7.12502
rthumb -0.361943 -37.3824
lclavicle 5.06901e-015 3.18055e-015
lhumerus -17.5923 26.2774 17.8138
lradius 26.1909
lwrist -14.5786
lhand -18.4555 23.8002
lfingers 7.12502
lthumb 7.83072 53.6352
rfemur -14.177 0.642184 11.1639
rtibia 32.5208
rfoot -22.7128 -6.97026
rtoes 3.01694
lfemur -11.3669 -2.75513 -15.6882
ltibia 27.4306
lfoot -17.3468 5.93912
ltoes -22.4375
4065
root -1.88969 17.6367 0.651169 6.3976 1.64605 0.959981
lowerback 1.52766 -0.759164 -3.28255
upperback 0.66694 -1.05275 2.00677
thorax -0.0745546 -0.537135 3.92286
lowerneck -29.4991 -1.83424 -9.53288
upperneck 22.1562 0.512063 3.92704
head 12.1357 -0.0607483 3.15193
rclavicle 1.99779e-014 -7.95139e-015
rhumerus -21.2712 -33.1221 -8.18471
rradius 28.3101
rwrist 29.7614
rhand -27.1731 -7.14862
rfingers 7.12502
rthumb -0.58724 -37.1276
lclavicle 1.99779e-014 -7.95139e-015
lhumerus -17.925 25.9885 16.8213
lradius 26.5769
lwrist -13.9565
lhand -18.6394 22.9496
lfingers 7.12502
lthumb 7.65321 52.7912
rfemur -14.0605 0.658592 11.1885
rtibia 32.5531
rfoot -22.8414 -6.90563
rtoes 3.29994
lfemur -11.2895 -2.82927 -15.6614
ltibia 27.417
lfoot -17.3563 5.94193
ltoes -22.5614
4066
root -1.89218 17.6341 0.661558 6.36815 1.67876 0.973609
lowerback 1.61991 -0.766414 -3.34739
upperback 0.572878 -1.06597 2.03257
thorax -0.21994 -0.539227 3.98894
lowerneck -29.1145 -1.7882 -9.52205
upperneck 22.095 0.553787 3.83843
head 12.0397 -0.0533223 3.11829
rclavicle -7.55382e-015 1.35174e-014
rhumerus -21.4262 -33.1433 -7.08714
rradius 28.3718
rwrist 29.8225
rhand -27.2722 -6.88292
rfingers 7.12502
rthumb -0.682971 -36.8616
lclavicle -7.55382e-015 1.35174e-014
lhumerus -18.1707 25.7257 15.8484
lradius 26.876
lwrist -13.457
lhand -18.7416 22.8886
lfingers 7.12502
lthumb 7.55453 52.7337
rfemur -14.0017 0.641821 11.1907
rtibia 32.577
rfoot -22.8905 -6.91648
rtoes 3.10923
lfemur -11.2346 -2.83875 -15.6707
ltibia 27.423
lfoot -17.3605 5.9287
ltoes -22.4851
4067
root -1.89275 17.6324 0.671577 6.34917 1.66959 1.0131
lowerback 1.58971 -0.752948 -3.40223
upperback 0.573648 -1.04806 2.02142
thorax -0.203094 -0.530686 4.00765
lowerneck -28.8602 -1.77018 -9.49926
upperneck 22.0103 0.550908 3.8007
head 11.9612 -0.0562127 3.09511
rclavicle 8.54774e-015 -2.26615e-014
rhumerus -21.4995 -33.3259 -6.10753
rradius 28.5449
rwrist 29.8637
rhand -27.2403 -7.15704
rfingers 7.12502
rthumb -0.65217 -37.1358
lclavicle 8.54774e-015 -2.26615e-014
lhumerus -18.0749 25.8603 14.9544
lradius 26.9629
lwrist -13.0301
lhand -18.9226 23.8786
lfingers 7.12502
lthumb 7.37981 53.7299
rfemur -13.9587 0.599971 11.1542
rtibia 32.5901
rfoot -22.8827 -6.89146
rtoes 3.19001
lfemur -11.1871 -2.81222 -15.7254
ltibia 27.4448
lfoot -17.3626 5.93389
ltoes -22.4271
4068
root -1.89507 17.6307 0.681622 6.30057 1.65616 1.04725
lowerback 1.49836 -0.755872 -3.44688
upperback 0.6696 -1.04987 1.99007
thorax -0.0528763 -0.536556 3.99802
lowerneck -28.8672 -1.77542 -9.54086
upperneck 22.0459 0.528275 3.91944
head 11.977 -0.0541646 3.14454
rclavicle 2.05742e-014 -1.31198e-014
rhumerus -21.3792 -33.5671 -5.3325
rradius 28.7064
rwrist 29.7958
rhand -27.4303 -7.46704
rfingers 7.12502
rthumb -0.835642 -37.4451
lclavicle 2.05742e-014 -1.31198e-014
lhumerus -17.9127 25.9449 14.1001
lradius 27.201
lwrist -12.3249
lhand -19.1898 25.0107
lfingers 7.12502
lthumb 7.12192 54.8709
rfemur -13.8787 0.592349 11.1362
rtibia 32.5896
rfoot -22.8686 -6.94606
rtoes 3.0403
lfemur -11.1338 -2.80841 -15.7654
ltibia 27.4858
lfoot -17.3657 5.94789
ltoes -22.3862
4069
root -1.89852 17.6316 0.689378 6.22323 1.66493 1.06072
lowerback 1.49663 -0.768626 -3.49887
upperback 0.718595 -1.06741 1.98785
thorax 0.0010688 -0.547515 4.02484
lowerneck -28.7108 -1.75153 -9.52017
upperneck 21.9861 0.542783 3.89194
head 11.9244 -0.0485141 3.13023
rclavicle -1.2921e-015 0
rhumerus -21.1466 -33.9039 -4.60064
rradius 28.8972
rwrist 29.8584
rhand -27.5101 -7.66731
rfingers 7.12502
rthumb -0.912781 -37.6451
lclavicle -1.2921e-015 0
lhumerus -17.7992 26.203 13.2019
lradius 27.4636
lwrist -12.2727
lhand -19.609 25.3463
lfingers 7.12502
lthumb 6.71731 55.2197
rfemur -13.7673 0.564547 11.1516
rtibia 32.5801
rfoot -22.8571 -7.01459
rtoes 2.83962
lfemur -11.0524 -2.80189 -15.7726
ltibia 27.5337
lfoot -17.3755 5.92156
ltoes -22.1491
